<mxfile host="Electron" agent="Mozilla/5.0 (Windows NT 10.0; Win64; x64) AppleWebKit/537.36 (KHTML, like Gecko) draw.io/24.7.17 Chrome/128.0.6613.36 Electron/32.0.1 Safari/537.36" version="24.7.17">
  <diagram id="C5RBs43oDa-KdzZeNtuy" name="Page-1">
    <mxGraphModel dx="1050" dy="621" grid="1" gridSize="10" guides="1" tooltips="1" connect="1" arrows="1" fold="1" page="1" pageScale="1" pageWidth="827" pageHeight="1169" math="0" shadow="0">
      <root>
        <mxCell id="WIyWlLk6GJQsqaUBKTNV-0" />
        <mxCell id="WIyWlLk6GJQsqaUBKTNV-1" parent="WIyWlLk6GJQsqaUBKTNV-0" />
        <mxCell id="2wPlYGKLcFb8GtqDBqTE-2" value="" style="edgeStyle=orthogonalEdgeStyle;rounded=0;orthogonalLoop=1;jettySize=auto;html=1;" edge="1" parent="WIyWlLk6GJQsqaUBKTNV-1" source="2wPlYGKLcFb8GtqDBqTE-0" target="2wPlYGKLcFb8GtqDBqTE-1">
          <mxGeometry relative="1" as="geometry" />
        </mxCell>
        <mxCell id="2wPlYGKLcFb8GtqDBqTE-0" value="Bắt đầu" style="ellipse;whiteSpace=wrap;html=1;" vertex="1" parent="WIyWlLk6GJQsqaUBKTNV-1">
          <mxGeometry x="354" y="100" width="120" height="80" as="geometry" />
        </mxCell>
        <mxCell id="2wPlYGKLcFb8GtqDBqTE-6" value="" style="edgeStyle=orthogonalEdgeStyle;rounded=0;orthogonalLoop=1;jettySize=auto;html=1;" edge="1" parent="WIyWlLk6GJQsqaUBKTNV-1" source="2wPlYGKLcFb8GtqDBqTE-1" target="2wPlYGKLcFb8GtqDBqTE-5">
          <mxGeometry relative="1" as="geometry" />
        </mxCell>
        <mxCell id="2wPlYGKLcFb8GtqDBqTE-1" value="Nhập số a" style="shape=parallelogram;perimeter=parallelogramPerimeter;whiteSpace=wrap;html=1;fixedSize=1;" vertex="1" parent="WIyWlLk6GJQsqaUBKTNV-1">
          <mxGeometry x="354" y="270" width="120" height="60" as="geometry" />
        </mxCell>
        <mxCell id="2wPlYGKLcFb8GtqDBqTE-8" value="" style="edgeStyle=orthogonalEdgeStyle;rounded=0;orthogonalLoop=1;jettySize=auto;html=1;" edge="1" parent="WIyWlLk6GJQsqaUBKTNV-1" source="2wPlYGKLcFb8GtqDBqTE-5" target="2wPlYGKLcFb8GtqDBqTE-7">
          <mxGeometry relative="1" as="geometry" />
        </mxCell>
        <mxCell id="2wPlYGKLcFb8GtqDBqTE-5" value="a % 2" style="whiteSpace=wrap;html=1;" vertex="1" parent="WIyWlLk6GJQsqaUBKTNV-1">
          <mxGeometry x="354" y="410" width="120" height="60" as="geometry" />
        </mxCell>
        <mxCell id="2wPlYGKLcFb8GtqDBqTE-10" value="True" style="edgeStyle=orthogonalEdgeStyle;rounded=0;orthogonalLoop=1;jettySize=auto;html=1;" edge="1" parent="WIyWlLk6GJQsqaUBKTNV-1" source="2wPlYGKLcFb8GtqDBqTE-7" target="2wPlYGKLcFb8GtqDBqTE-9">
          <mxGeometry relative="1" as="geometry" />
        </mxCell>
        <mxCell id="2wPlYGKLcFb8GtqDBqTE-12" value="False" style="edgeStyle=orthogonalEdgeStyle;rounded=0;orthogonalLoop=1;jettySize=auto;html=1;" edge="1" parent="WIyWlLk6GJQsqaUBKTNV-1" source="2wPlYGKLcFb8GtqDBqTE-7" target="2wPlYGKLcFb8GtqDBqTE-11">
          <mxGeometry relative="1" as="geometry" />
        </mxCell>
        <mxCell id="2wPlYGKLcFb8GtqDBqTE-7" value="a % 2 == 0" style="rhombus;whiteSpace=wrap;html=1;" vertex="1" parent="WIyWlLk6GJQsqaUBKTNV-1">
          <mxGeometry x="359" y="530" width="110" height="110" as="geometry" />
        </mxCell>
        <mxCell id="2wPlYGKLcFb8GtqDBqTE-9" value="a là số chẵn" style="shape=parallelogram;perimeter=parallelogramPerimeter;whiteSpace=wrap;html=1;fixedSize=1;" vertex="1" parent="WIyWlLk6GJQsqaUBKTNV-1">
          <mxGeometry x="354" y="745" width="120" height="60" as="geometry" />
        </mxCell>
        <mxCell id="2wPlYGKLcFb8GtqDBqTE-11" value="a là số lẻ" style="shape=parallelogram;perimeter=parallelogramPerimeter;whiteSpace=wrap;html=1;fixedSize=1;" vertex="1" parent="WIyWlLk6GJQsqaUBKTNV-1">
          <mxGeometry x="580" y="555" width="120" height="60" as="geometry" />
        </mxCell>
        <mxCell id="2wPlYGKLcFb8GtqDBqTE-13" value="Kết thúc" style="ellipse;whiteSpace=wrap;html=1;" vertex="1" parent="WIyWlLk6GJQsqaUBKTNV-1">
          <mxGeometry x="354" y="870" width="120" height="80" as="geometry" />
        </mxCell>
        <mxCell id="2wPlYGKLcFb8GtqDBqTE-14" value="" style="endArrow=classic;html=1;rounded=0;exitX=0.5;exitY=1;exitDx=0;exitDy=0;entryX=0.5;entryY=0;entryDx=0;entryDy=0;" edge="1" parent="WIyWlLk6GJQsqaUBKTNV-1" source="2wPlYGKLcFb8GtqDBqTE-9" target="2wPlYGKLcFb8GtqDBqTE-13">
          <mxGeometry width="50" height="50" relative="1" as="geometry">
            <mxPoint x="390" y="950" as="sourcePoint" />
            <mxPoint x="440" y="900" as="targetPoint" />
          </mxGeometry>
        </mxCell>
        <mxCell id="2wPlYGKLcFb8GtqDBqTE-15" value="" style="endArrow=classic;html=1;rounded=0;exitX=0.423;exitY=0.977;exitDx=0;exitDy=0;entryX=1;entryY=0.5;entryDx=0;entryDy=0;exitPerimeter=0;" edge="1" parent="WIyWlLk6GJQsqaUBKTNV-1" source="2wPlYGKLcFb8GtqDBqTE-11" target="2wPlYGKLcFb8GtqDBqTE-13">
          <mxGeometry width="50" height="50" relative="1" as="geometry">
            <mxPoint x="424" y="815" as="sourcePoint" />
            <mxPoint x="424" y="880" as="targetPoint" />
            <Array as="points">
              <mxPoint x="631" y="910" />
            </Array>
          </mxGeometry>
        </mxCell>
      </root>
    </mxGraphModel>
  </diagram>
</mxfile>
